# xmcd
#
# Track frame offsets:
#	150
#	9538
#	25225
#	44081
#	57859
#	71303
#	85964
#	98358
#	107512
#	120904
#	132630
#	148791
#
# Disc length: 2184 seconds
#
# Revision: 1
# Processed by: cddbd v1.5.2PL0 Copyright (c) Steve Scherf et al.
# Submitted via: audiograbber 1.83.01
#
DISCID=9b08860c
DTITLE=Nudie - Rember This
DYEAR=2014
DGENRE=
TTITLE0=If A Heart Could Tell with Molly Rankin
TTITLE1=Sex Kisses
TTITLE2=Remember This
TTITLE3=My Sweet Ache
TTITLE4=You Try To Be Right
TTITLE5=Fiona
TTITLE6=Walking The Streets
TTITLE7=Why Do We Keep Hanging On
TTITLE8=Pawn Shop
TTITLE9=The Pain In You
TTITLE10=I´m Tired Of Living With You
TTITLE11=I Miss The Love (But I Never Miss You)
EXTD=
EXTT0=
EXTT1=
EXTT2=
EXTT3=
EXTT4=
EXTT5=
EXTT6=
EXTT7=
EXTT8=
EXTT9=
EXTT10=
EXTT11=
PLAYORDER=
